HIERARCHY
ROOT Hips
{
	OFFSET 51.601799 -12.659616 95.542297
	CHANNELS 6 Xposition Yposition Zposition Xrotation Yrotation Zrotation
	JOINT spine
	{
		OFFSET 0.000000 -0.458069 7.965683
		CHANNELS 3 Xrotation Yrotation Zrotation
		JOINT spine1
		{
			OFFSET 0.000000 -0.000001 10.243103
			CHANNELS 3 Xrotation Yrotation Zrotation
			JOINT spine2
			{
				OFFSET 0.000000 -0.000002 9.814751
				CHANNELS 3 Xrotation Yrotation Zrotation
				JOINT Neck
				{
					OFFSET 0.000000 -1.201384 25.198601
					CHANNELS 3 Xrotation Yrotation Zrotation
					JOINT Head
					{
						OFFSET 0.000000 -0.000002 7.613144
						CHANNELS 3 Xrotation Yrotation Zrotation
						End Site
						{
							OFFSET 0.000000 6.077328 18.428101
						}
					}
				}
				JOINT RightShoulder
				{
					OFFSET -4.132698 0.575449 10.599205
					CHANNELS 3 Xrotation Yrotation Zrotation
					JOINT RightArm
					{
						OFFSET 0.000000 -0.000002 13.901794
						CHANNELS 3 Xrotation Yrotation Zrotation
						JOINT RightArmRoll
						{
							OFFSET 0.000000 -0.000001 7.017883
							CHANNELS 3 Xrotation Yrotation Zrotation
							JOINT RightForeArm
							{
								OFFSET 0.000000 -0.000004 20.440598
								CHANNELS 3 Xrotation Yrotation Zrotation
								JOINT RightForeArmRoll
								{
									OFFSET 0.000000 -0.000001 7.875168
									CHANNELS 3 Xrotation Yrotation Zrotation
									JOINT RightHand
									{
										OFFSET 0.000000 -0.000003 15.803696
										CHANNELS 3 Xrotation Yrotation Zrotation
										End Site
										{
											OFFSET 0.000000 0.000000 0.100006
										}
									}
								}
							}
						}
					}
				}
				JOINT LeftShoulder
				{
					OFFSET 4.132698 0.575449 10.599205
					CHANNELS 3 Xrotation Yrotation Zrotation
					JOINT LeftArm
					{
						OFFSET 0.000000 -0.000002 13.901794
						CHANNELS 3 Xrotation Yrotation Zrotation
						JOINT LeftArmRoll
						{
							OFFSET 0.000000 -0.000001 7.017883
							CHANNELS 3 Xrotation Yrotation Zrotation
							JOINT LeftForeArm
							{
								OFFSET 0.000000 -0.000004 20.440598
								CHANNELS 3 Xrotation Yrotation Zrotation
								JOINT LeftForeArmRoll
								{
									OFFSET 0.000000 -0.000001 7.875168
									CHANNELS 3 Xrotation Yrotation Zrotation
									JOINT LeftHand
									{
										OFFSET 0.000000 -0.000003 15.803696
										CHANNELS 3 Xrotation Yrotation Zrotation
										End Site
										{
											OFFSET 0.000000 0.000000 0.100006
										}
									}
								}
							}
						}
					}
				}
			}
		}
	}
	JOINT RightUpLeg
	{
		OFFSET -7.060478 1.086100 -1.294701
		CHANNELS 3 Xrotation Yrotation Zrotation
		JOINT RightUpLegRoll
		{
			OFFSET 0.000000 -0.000003 18.530800
			CHANNELS 3 Xrotation Yrotation Zrotation
			JOINT RightLeg
			{
				OFFSET 0.000000 0.000004 -22.947601
				CHANNELS 3 Xrotation Yrotation Zrotation
				JOINT RightLegRoll
				{
					OFFSET 0.000000 -0.000004 23.022598
					CHANNELS 3 Xrotation Yrotation Zrotation
					JOINT RightFoot
					{
						OFFSET 0.000000 -0.000004 19.162506
						CHANNELS 3 Xrotation Yrotation Zrotation
						JOINT RightToeBase
						{
							OFFSET 0.000000 -0.000002 16.018799
							CHANNELS 3 Xrotation Yrotation Zrotation
							End Site
							{
								OFFSET 0.006790 0.894204 7.757812
							}
						}
					}
				}
			}
		}
	}
	JOINT LeftUpLeg
	{
		OFFSET 7.060478 1.086100 -1.294701
		CHANNELS 3 Xrotation Yrotation Zrotation
		JOINT LeftUpLegRoll
		{
			OFFSET 0.000000 -0.000003 18.530899
			CHANNELS 3 Xrotation Yrotation Zrotation
			JOINT LeftLeg
			{
				OFFSET 0.000000 -0.000004 22.947502
				CHANNELS 3 Xrotation Yrotation Zrotation
				JOINT LeftLegRoll
				{
					OFFSET 0.000000 -0.000004 23.235504
					CHANNELS 3 Xrotation Yrotation Zrotation
					JOINT LeftFoot
					{
						OFFSET 0.000000 -0.000003 18.949600
						CHANNELS 3 Xrotation Yrotation Zrotation
						JOINT LeftToeBase
						{
							OFFSET 0.000000 -0.000003 16.018799
							CHANNELS 3 Xrotation Yrotation Zrotation
							End Site
							{
								OFFSET -0.030430 0.894206 7.757812
							}
						}
					}
				}
			}
		}
	}
}
MOTION
Frames: 10
Frame Time: 0.041667
52.565495 -15.715625 112.279999 2.993915 1.977079 1.165828 -1.734475 -0.662396 0.258501 0.536761 -1.329972 0.503471 2.181993 -1.323840 0.519368 25.232817 -4.013969 -2.461944 -7.768854 1.710466 -2.763638 -14.091087 -40.051140 -15.968501 -152.507196 -150.491429 -102.457106 -0.000000 -0.000003 0.000002 34.277246 8.743842 1.053388 -0.000001 0.000019 -3.001451 -5.000169 -7.999790 0.000026 -7.299180 42.417264 7.200910 -148.070127 156.272543 109.138370 -0.000000 0.000003 0.000003 30.259254 -3.368900 -1.254692 -0.000000 -0.000003 3.000890 -5.000155 8.000023 0.000004 -5.503619 -166.264180 3.602674 -179.999991 0.000006 -1.285997 172.594236 -4.610390 -0.795595 -0.000004 -0.000002 0.123299 66.747962 7.034961 1.927644 25.456955 -7.355618 0.000009 -9.797928 162.886228 -3.242665 -0.000005 -0.000003 -1.104200 -11.339133 0.690310 0.383087 0.000002 -0.000004 -0.193885 69.595871 -6.992768 -1.828474 25.456959 7.355613 -0.000012 
52.565197 -15.709824 112.116989 3.037685 1.946074 1.157958 -1.738948 -0.662711 0.258527 0.527824 -1.330614 0.503467 2.173051 -1.324487 0.519371 25.276399 -3.908189 -2.494325 -7.750139 1.643172 -2.789392 -14.142261 -39.689089 -16.022497 -152.382804 -151.046287 -102.110679 0.000003 -0.000004 0.000001 34.493251 8.877070 1.072366 0.000002 0.000019 -3.001451 -5.000172 -7.999789 0.000027 -7.425665 42.250341 7.350300 -148.107516 156.819969 109.091460 0.000000 -0.000001 -0.000003 30.439677 -3.423624 -1.267467 -0.000001 -0.000008 3.000888 -5.000155 8.000019 0.000002 -5.571083 -166.091431 3.641460 -179.999991 0.000006 -1.288005 172.644916 -4.577193 -0.790173 -0.000004 -0.000001 0.121518 66.747949 7.036368 1.924038 25.456955 -7.355618 0.000011 -9.811940 162.769323 -3.291545 -0.000005 -0.000005 -1.106169 -11.179644 0.699818 0.378226 0.000002 -0.000005 -0.189591 69.561085 -6.994979 -1.825269 25.456957 7.355613 -0.000010 
52.532795 -15.691425 111.944000 3.080040 1.912864 1.150722 -1.743315 -0.663336 0.258236 0.519081 -1.331875 0.502822 2.164310 -1.325754 0.518742 25.322723 -3.781897 -2.526410 -7.733672 1.559056 -2.812811 -14.190485 -39.317806 -16.071640 -152.258809 -151.596486 -101.765338 0.000001 -0.000005 -0.000001 34.694967 9.008663 1.091740 0.000004 0.000017 -3.001450 -5.000174 -7.999790 0.000027 -7.567084 42.090303 7.519869 -148.131599 157.368952 109.037249 -0.000002 0.000000 -0.000003 30.609445 -3.478673 -1.280242 -0.000002 -0.000005 3.000889 -5.000158 8.000023 0.000003 -5.641401 -165.916783 3.678464 -179.999991 0.000006 -1.289999 172.685473 -4.540901 -0.786242 -0.000004 -0.000002 0.119699 66.754922 7.037690 1.920166 25.456953 -7.355614 0.000009 -9.820443 162.655149 -3.341256 -0.000004 -0.000004 -1.108450 -11.013457 0.710692 0.373364 0.000002 -0.000003 -0.185109 69.524318 -6.997228 -1.821894 25.456959 7.355613 -0.000010 
52.569496 -15.699822 111.785004 3.121129 1.877752 1.144260 -1.747628 -0.664217 0.257664 0.510466 -1.333637 0.501613 2.155699 -1.327530 0.517554 25.371742 -3.638036 -2.558302 -7.719500 1.460390 -2.834203 -14.236782 -38.938065 -16.117442 -152.134390 -152.142027 -101.420864 0.000001 -0.000005 0.000001 34.884891 9.138465 1.111733 0.000003 0.000018 -3.001452 -5.000173 -7.999790 0.000029 -7.720879 41.935278 7.706174 -148.143839 157.918427 108.975996 0.000000 -0.000001 -0.000001 30.770665 -3.534428 -1.293073 0.000002 -0.000009 3.000888 -5.000158 8.000024 0.000006 -5.714147 -165.739294 3.713748 -179.999991 0.000005 -1.291993 172.717043 -4.501539 -0.781693 -0.000004 -0.000002 0.117851 66.768063 7.038956 1.915883 25.456955 -7.355617 0.000011 -9.824624 162.543708 -3.391508 -0.000004 -0.000005 -1.111000 -10.842374 0.722512 0.368476 0.000002 -0.000003 -0.180472 69.485666 -6.999586 -1.818463 25.456955 7.355616 -0.000013 
52.608894 -15.711025 111.602989 3.161065 1.841056 1.138782 -1.751898 -0.665298 0.256847 0.501916 -1.335789 0.499909 2.147149 -1.329706 0.515877 25.423395 -3.479530 -2.590101 -7.707681 1.349452 -2.853880 -14.282019 -38.550660 -16.161254 -152.008633 -152.682472 -101.076677 0.000003 -0.000003 0.000003 35.065341 9.266381 1.132563 0.000001 0.000021 -3.001450 -5.000172 -7.999790 0.000026 -7.884537 41.783665 7.905876 -148.145997 158.467287 108.908159 0.000000 -0.000000 0.000001 30.925587 -3.591257 -1.306017 -0.000003 -0.000008 3.000890 -5.000157 8.000019 0.000002 -5.788771 -165.560903 3.747662 -179.999991 0.000006 -1.293005 172.740798 -4.459115 -0.777404 -0.000004 -0.000001 0.115982 66.786635 7.040083 1.911525 25.456955 -7.355615 0.000009 -9.825721 162.434084 -3.441826 -0.000004 -0.000004 -1.113790 -10.667790 0.734833 0.363542 0.000002 -0.000004 -0.175720 69.445662 -7.001995 -1.814928 25.456959 7.355612 -0.000011 
52.619095 -15.709026 111.434990 3.199995 1.803055 1.134441 -1.756168 -0.666522 0.255823 0.493369 -1.338231 0.497788 2.138599 -1.332172 0.513784 25.477721 -3.309323 -2.621897 -7.698250 1.228491 -2.872172 -14.326882 -38.156141 -16.204277 -151.880840 -153.217768 -100.732675 0.000001 -0.000006 0.000001 35.238630 9.392308 1.154429 0.000002 0.000016 -3.001452 -5.000172 -7.999790 0.000025 -8.055518 41.633620 8.115569 -148.139440 159.014331 108.833621 -0.000000 0.000001 0.000002 31.076104 -3.649551 -1.319122 0.000002 -0.000005 3.000891 -5.000161 8.000024 0.000005 -5.864830 -165.380600 3.780284 -179.999991 0.000007 -1.294999 172.757805 -4.414639 -0.774428 -0.000004 -0.000002 0.114100 66.809591 7.041194 1.906881 25.456953 -7.355613 0.000009 -9.824879 162.326358 -3.491943 -0.000005 -0.000007 -1.116790 -10.491402 0.747221 0.358554 0.000002 -0.000005 -0.170893 69.404428 -7.004486 -1.811287 25.456957 7.355614 -0.000011 
52.639397 -15.727425 111.258995 3.238046 1.764050 1.131416 -1.760468 -0.667834 0.254627 0.484760 -1.340842 0.495318 2.129999 -1.334807 0.511347 25.534637 -3.130352 -2.653789 -7.691254 1.099789 -2.889403 -14.372362 -37.755469 -16.247982 -151.750165 -153.747654 -100.388358 -0.000001 -0.000004 0.000001 35.407264 9.516258 1.177401 0.000000 0.000016 -3.001450 -5.000175 -7.999794 0.000026 -8.231337 41.483594 8.331920 -148.125643 159.558670 108.752581 0.000000 0.000001 0.000001 31.224551 -3.709696 -1.332427 -0.000000 -0.000006 3.000890 -5.000154 8.000016 0.000002 -5.941824 -165.199409 3.811900 -179.999991 0.000006 -1.295996 172.769212 -4.368114 -0.770657 -0.000004 -0.000001 0.112211 66.836099 7.042279 1.902107 25.456953 -7.355613 0.000010 -9.823312 162.220544 -3.541530 -0.000005 -0.000005 -1.119950 -10.314813 0.759255 0.353506 0.000002 -0.000003 -0.166024 69.362572 -7.007018 -1.807498 25.456959 7.355612 -0.000011 
52.670795 -15.730329 111.094994 3.275356 1.724360 1.129884 -1.764832 -0.669175 0.253295 0.476025 -1.343514 0.492578 2.121259 -1.337513 0.508639 25.594056 -2.945540 -2.685836 -7.686727 0.965615 -2.905887 -14.419361 -37.349247 -16.293705 -151.615843 -154.272007 -100.043468 0.000002 -0.000006 -0.000002 35.573565 9.638071 1.201669 0.000000 0.000018 -3.001450 -5.000172 -7.999788 0.000027 -8.409492 41.331944 8.551591 -148.106273 160.099019 108.665270 0.000000 -0.000001 -0.000000 31.373057 -3.772082 -1.345941 0.000001 -0.000006 3.000889 -5.000156 8.000017 0.000004 -6.019306 -165.016305 3.842570 -179.999991 0.000005 -1.298004 172.776192 -4.320568 -0.767098 -0.000004 -0.000001 0.110325 66.865421 7.043241 1.897226 25.456952 -7.355616 0.000011 -9.822241 162.115756 -3.590105 -0.000005 -0.000006 -1.123240 -10.139627 0.770487 0.348400 0.000002 -0.000004 -0.161154 69.320191 -7.009564 -1.803845 25.456957 7.355612 -0.000010 
52.699295 -15.744826 110.889992 3.312061 1.684283 1.130014 -1.769282 -0.670492 0.251865 0.467101 -1.346125 0.489637 2.112338 -1.340169 0.505730 25.655968 -2.757832 -2.718112 -7.684716 0.828224 -2.921978 -14.468531 -36.938192 -16.342624 -151.476985 -154.790637 -99.697478 0.000002 -0.000005 0.000004 35.739993 9.757734 1.227322 -0.000002 0.000018 -3.001450 -5.000174 -7.999789 0.000027 -8.587516 41.177056 8.771235 -148.082668 160.634520 108.571464 -0.000001 -0.000003 -0.000003 31.523645 -3.837100 -1.359689 -0.000000 -0.000006 3.000887 -5.000161 8.000016 0.000003 -6.096717 -164.833269 3.872722 -179.999991 0.000005 -1.299001 172.779826 -4.271987 -0.764687 -0.000004 -0.000001 0.108448 66.896498 7.044154 1.892518 25.456952 -7.355617 0.000010 -9.822842 162.012032 -3.637357 -0.000004 -0.000004 -1.126619 -9.967294 0.780499 0.343240 0.000003 -0.000003 -0.156316 69.277639 -7.012196 -1.799920 25.456960 7.355624 -0.000014 
52.702297 -15.744727 110.704002 3.348290 1.644110 1.131985 -1.773863 -0.671728 0.250372 0.457926 -1.348587 0.486572 2.103168 -1.342655 0.502694 25.720262 -2.570158 -2.750675 -7.685254 0.689887 -2.937997 -14.520774 -36.523098 -16.396071 -151.332854 -155.303544 -99.350019 0.000000 -0.000004 0.000002 35.908757 9.875226 1.254478 -0.000003 0.000016 -3.001451 -5.000171 -7.999787 0.000028 -8.762956 41.017410 8.987542 -148.056317 161.163983 108.471402 0.000002 -0.000000 0.000001 31.678561 -3.905158 -1.373658 -0.000001 -0.000004 3.000890 -5.000158 8.000023 0.000005 -6.173592 -164.650275 3.902541 -179.999991 0.000005 -1.299998 172.781260 -4.221395 -0.761194 -0.000004 -0.000002 0.106587 66.928628 7.045002 1.887735 25.456953 -7.355613 0.000008 -9.826321 161.909429 -3.682934 -0.000004 -0.000005 -1.130050 -9.799547 0.788844 0.338044 0.000002 -0.000004 -0.151549 69.235292 -7.014795 -1.795978 25.456964 7.355623 -0.000017 
